<svg id="b" xmlns="http://www.w3.org/2000/svg" width="273.97" height="316.683" viewBox="0 0 273.97 316.683"><defs><style>.g{fill:#fcdc4a;}.g,.h,.i{stroke-width:0px;}.h{fill:#fff;}.i{fill:#211715;}</style></defs><g id="c"><g id="d"><path class="h" d="m246.079,285.006l-.802-1.576c-.042-.146-.097-.29-.178-.428-.084-.144-.178-.298-.266-.446l-.016-.032h-.002c-1.515-2.535-3.57-5.611-4.821-7.472-.598-.889-1.733-1.232-2.723-.823-2.307.954-6.38,2.657-9.325,4.183-.933.483-1.274,1.638-.769,2.56,1.608,2.937,3.18,5.892,4.718,8.864.186.36.476.63.812.801l.174.468c1.166,1.941,2.726,3.529,5.002,4.049,1.715.392,3.541.17,5.179-.472,1.319-.516,2.599-1.723,3.289-3.249,1.034-2.289.57-4.791-.271-6.426Z"></path><path class="h" d="m176.43,67.98c1.308-1.256,3.069-1.728,4.576-1.675,3.281.116,4.676,1.89,5.277,2.932,1.793,3.11,1.717,8.84.514,12.385-.852,2.511-2.249,6.352-5.615,9.106-1.547,1.266-3.908,2.05-6.051,1.393-1.52,5.181-4.245,11.39-8.995,17.169-3.449,4.198-6.75,6.948-10.599,8.959-.002.848-.002,1.355-.002,1.355,0,1.11,0,2.32.41,3.4.55,1.42,1.29,2.65,2.48,3.61,2.52,2.03,5.11,3,8.3,4.2l2.66,1.049c-7.163,5.744-19.926,10.338-33.22,10.377-13.204-.039-25.885-4.571-33.075-10.26l2.965-1.167c3.19-1.2,5.78-2.17,8.3-4.2,1.19-.96,1.93-2.19,2.48-3.61.41-1.08.41-2.29.41-3.4,0,0,0-.145-.004-.408-4.254-2.136-8.083-5.47-11.728-9.906-4.827-5.874-7.563-12.191-9.068-17.422-2.082.533-4.328-.255-5.816-1.492-3.355-2.791-4.737-6.671-5.579-9.208-1.19-3.581-1.243-9.362.562-12.491.605-1.049,2.007-2.833,5.288-2.937,1.508-.048,3.267.435,4.57,1.708,0,0-9.145-44.114,42.855-44.114s38.104,44.646,38.104,44.646Z"></path><path class="h" d="m137.03,255.148c-22.926-3.422-46.321-3.01-56.63-1.817-1.323,3.47-14.589,47.207-17.381,59.082-.226.96.824,1.772,1.952,1.523,20.242-4.463,55.895-4.147,69.481.009.835.255,1.709.367,2.578.333.869.033,1.742-.078,2.577-.333,13.586-4.156,49.239-4.472,69.481-.009,1.128.249,2.201-.569,1.952-1.523-3.084-11.8-16.714-55.612-18.037-59.082-10.308-1.193-33.048-1.605-55.974,1.817Z"></path><path class="h" d="m104.233,239.134c-8.877,2.554-44.248,12.731-44.248,12.731l-6.425-3.284c-7.908-3.389-14.401-10.605-13.963-20.722.361-8.334,2.643-17.442,3.972-22.667,4.083-16.054,11.5-40.25,15.306-46.389,4.198-6.772,10.694-12.743,17.528-16.194,7.133-3.602,14.843-6.818,24.397-9.972.711-.235,1.439-.492,2.166-.757.173.135.266.208.266.208,7.212,5.639,19.815,10.114,32.935,10.153,13.12-.039,25.722-4.513,32.935-10.153l.37-.306c1.7.621,3.432,1.247,4.599,1.695,8.773,3.367,16.917,6.458,24.25,10.389,6.748,3.617,12.597,8.847,16.875,15.569,2.288,3.595,5.794,12.003,7.108,15.986,3.021,9.159,5.596,19.242,9.073,31.611,1.459,5.19,2.917,12.719,3.278,21.052.438,10.117-5.667,18.448-13.889,20.781l-7.889,3-41.333-13.36c-20.283.018-45.308.036-65.306.053l-2.002.576Z"></path><path class="h" d="m86.733,232.172c6.501-.994,12.799-.923,18.324,3.705,3.26,2.731,9.368,6.994,10.255,11.764.353,1.899-.601,4.984-2.621,6.109l-4.572,13.246c1.643,1.496,1.904,2.687,1.144,3.766-1.025,1.457-2.37,2.012-4.161,1.984s-3.006-.583-4.5-1.563c.618,1.229-2.778,3.088-3.666,3.326-3.296.883-5.677-.525-8.119-2.481,1.025,2.96-3.279,6.483-6.7,4.377-3.503-2.157-6.033-3.896-8.107-7.087-2.014-3.098-2.953-6.525-4.182-8.812-1.95-3.856-5.773-6.301-5.423-8.844.521-4.713,4.985-10.753,7.559-13.554,3.321-3.615,10.109-5.224,14.77-5.937"></path><path class="h" d="m185.374,275.173c-.56.372-1.12.721-1.665,1.029-1.26.712-4.127,1.542-5.941.504-1.123-.643-1.707-1.702-1.809-2.812-.102.06-.158.093-.158.093-2.436,1.434-6.365,2.153-8.546.244-1.269-1.111-2.037-4.147-.513-6.348.208-.373.498-.776.856-1.204-1.268.497-3.64,1.146-5.009-1.705-.905-1.887-.107-4.808,2.167-6.992.859-.824,2.639-2.932,4.401-4.477.378-.329.762-.656,1.147-.979l-1.6-.238c-1.177.071-2.606-1.018-3.191-2.144-.494-.951-.355-2.446-.011-3.38.802-2.177,4.49-4.562,8.3-6.576,4.072-2.153,6.97-3.007,11.256-3.604,4.039-.398,6.821-.477,10.865.171,3.658.586,6.233,2.287,8.856,4.033,1.582,1.053,4.95,4.639,5.777,6.4,1.493,3.178,2.279,6.138,2.053,9.02-.376,4.785-1.603,7.479-4.591,10.59-1.739,1.81-4.768,4.57-6.728,6.121-2.749,2.175-5.386,2.458-7.305,1.635-1.544-.662-1.717-3.571-1.096-4.723,0,0,.059-.109.118-.218l-.056.039c-.615.431-1.154.807-1.554,1.09-1.406.996-3.722,2.905-6.023,4.431Z"></path><g id="e"><path class="g" d="m185.898,54.781c1.564-9.05.458-16.782-2.849-24.798-4.6-11.151-15.308-20.269-28.182-21.699l-8.079-2.219c-9.634-4.933-21.63-4.641-31.541-.719-1.066.422-2.115.885-3.145,1.387-9.731,4.742-17.044,12.644-22.845,21.621l-1.823,8.79c-3.44,9.471-2.95,20.402,1.271,29.533.608-.206,1.321-.343,2.157-.373,1.507-.053,3.269.419,4.576,1.675l6.647,2.672c1.14-5.261,8.168-7.109,12.817-8.902,1.502-.743,3.056-1.55,4.622-2.425h7.478c12.366,1.856,24.545-7.975,29.471-18.684,0,0,.729-2.044,1.377-3.852,5.703,6.629,9.541,14.954,10.92,23.709.39,2.476.587,4.976.726,7.482,2.247,0,6.932,0,6.932,0,1.308-1.256,3.069-1.728,4.576-1.675.688.024,1.294.122,1.826.27.909-3.141,1.949-6.727,1.949-6.727.462-1.739.834-3.424,1.118-5.066Z" style="fill: rgb(241, 174, 71);"></path></g></g><g id="f"><path class="i" d="m199.685,266.614v-.01c.012-.33-.056-.639-.207-.925-.097-.298-.262-.555-.496-.772-.217-.234-.475-.399-.772-.496-.286-.15-.594-.219-.925-.207l-.638.086c-.407.114-.76.32-1.059.617l-.375.486c-.217.374-.326.778-.328,1.211v.01c-.012.33.056.639.207.925.097.298.262.555.496.772.217.234.475.399.772.496.286.15.594.219.925.207l.638-.086c.407-.114.76-.32,1.059-.617l.375-.486c.217-.374.326-.778.328-1.211h0Z"></path><path class="i" d="m113.775,255.254c4.709.251,9.411.617,14.099,1.122,2.363.254,4.722.54,7.075.873.671.095,1.41.296,2.086.296.608,0,1.269-.179,1.873-.266,1.182-.169,2.366-.326,3.552-.473,9.251-1.147,18.567-1.754,27.886-1.911,3.085-.052,3.095-4.852,0-4.8-11.362.191-22.705,1.076-33.948,2.736h1.276c-7.926-1.168-15.899-1.95-23.898-2.376-3.087-.164-3.078,4.636,0,4.8h0Z"></path><path class="i" d="m197.281,274.662c2.72,8.782,5.413,17.573,8.023,26.388.975,3.292,1.944,6.587,2.858,9.897.141.51.202,1.269.468,1.724.422.721.486-1.368.811-1.113-.241-.189-.989-.209-1.294-.27-1.675-.336-3.36-.627-5.049-.884-15.528-2.362-31.577-2.731-47.225-1.465-3.412.276-6.821.655-10.2,1.207-1.348.22-2.691.471-4.022.776-1.365.312-2.787.919-4.186.959-1.591.045-2.986-.462-4.508-.83-1.297-.313-2.608-.571-3.923-.797-3.327-.571-6.688-.96-10.05-1.249-15.642-1.345-31.681-.985-47.221,1.279-1.712.249-3.419.531-5.117.859-.19.037-2.048.342-2.044.436l.464.249.305,1.043c.016,0,.07-.331.09-.376.135-.303.171-.698.252-1.02.771-3.065,1.617-6.111,2.471-9.154,2.339-8.334,4.792-16.636,7.279-24.926.608-2.028,1.22-4.056,1.834-6.082.898-2.963-3.733-4.229-4.629-1.276-2.657,8.764-5.269,17.542-7.79,26.346-1.042,3.637-2.071,7.279-3.045,10.935-.354,1.328-.717,2.657-1.024,3.997-.252,1.098-.333,2.182.291,3.187.735,1.185,2.115,1.889,3.501,1.878,1.77-.014,3.69-.692,5.437-.991,1.769-.303,3.544-.566,5.325-.788,4.032-.502,8.083-.848,12.139-1.087,8.326-.49,16.69-.552,25.021-.139,6.701.332,13.147.788,19.588,2.412,1.937.488,3.752,1,5.787.878,1.648-.099,3.21-.688,4.807-1.062,2.996-.701,5.919-1.124,8.816-1.447,7.836-.873,15.749-1.116,23.629-1.033,8.247.087,16.531.522,24.709,1.627,1.799.243,3.594.527,5.38.854,1.935.354,4.255,1.288,6.122.331,1.037-.532,1.789-1.42,2.033-2.572.201-.95-.11-1.88-.358-2.79-.405-1.493-.828-2.98-1.255-4.467-2.494-8.682-5.135-17.323-7.787-25.958-.693-2.255-1.388-4.509-2.086-6.762-.911-2.941-5.546-1.686-4.629,1.276h0Z"></path><path class="i" d="m134.369,262.221c-.001,11.991-.044,23.981-.066,35.972-.004,2.051-.009,4.102-.009,6.153,0,3.089,4.8,3.094,4.8,0,.001-11.857.045-23.714.066-35.572.004-2.184.009-4.369.009-6.553,0-3.089-4.8-3.094-4.8,0h0Z"></path><path class="i" d="m153.135,118.394c0,1.497-.049,3.009.272,4.482.285,1.306.954,2.636,1.746,3.711,1.662,2.255,4.212,3.755,6.741,4.867,2.803,1.232,5.704,2.27,8.553,3.394,1.171.462,2.686-.505,2.952-1.676.315-1.382-.423-2.458-1.676-2.952-2.35-.927-4.717-1.818-7.06-2.763-.27-.112-.31-.128-.119-.048-.114-.049-.227-.098-.34-.149-.262-.116-.522-.235-.78-.359-.512-.246-1.017-.51-1.509-.795-1.046-.607-1.804-1.098-2.524-1.867-.333-.356-.43-.508-.752-1.091-.042-.077-.418-.848-.288-.545-.103-.24-.188-.489-.255-.742-.138-.519-.142-.775-.158-1.474-.014-.664-.005-1.328-.005-1.992,0-1.255-1.104-2.458-2.4-2.4s-2.4,1.055-2.4,2.4h0Z"></path><path class="i" d="m114.845,119.344c0,1.342.072,2.119-.418,3.257.147-.342-.14.267-.172.329-.15.29-.325.56-.492.84-.323.54.215-.18-.212.286-.224.245-.456.472-.699.698-.482.448-1.586,1.136-2.414,1.59-1.033.567-1.956.969-2.793,1.302-2.193.873-4.402,1.709-6.599,2.573-1.205.474-2.046,1.607-1.676,2.952.316,1.148,1.739,2.154,2.952,1.676,2.7-1.063,5.438-2.059,8.107-3.198,2.314-.988,4.838-2.274,6.516-4.2.98-1.126,1.694-2.407,2.204-3.808.496-1.362.496-2.866.496-4.298,0-1.255-1.104-2.458-2.4-2.4s-2.4,1.055-2.4,2.4h0Z"></path><path class="i" d="m106.235,240.958c18.389-.016,36.778-.027,55.167-.041,4.847-.004,9.694-.008,14.541-.012,3.088-.003,3.094-4.803,0-4.8-18.438.016-36.876.028-55.314.042-4.798.004-9.596.007-14.393.011-3.088.003-3.094,4.803,0,4.8h0Z"></path><path class="i" d="m164.444,132.429c4.284,1.769,8.699,3.244,13.024,4.913,5.458,2.106,10.905,4.257,16.167,6.822,4.701,2.292,9.122,4.947,12.933,8.562,3.407,3.231,6.236,6.954,8.334,11.154,4.135,8.277,6.735,17.104,9.226,25.982,1.553,5.536,3.05,11.088,4.6,16.626,1.394,4.981,2.456,10.031,3.027,15.176.615,5.551,1.087,11.219-1.569,16.343-2.109,4.069-5.632,7.242-10.06,8.543-2.957.869-1.699,5.503,1.276,4.629,9.716-2.856,15.779-12.411,15.672-22.33-.131-12.02-3.683-23.483-6.842-34.955-2.676-9.715-5.312-19.423-9.41-28.653-2.005-4.515-4.342-8.633-7.552-12.418-3.556-4.192-7.923-7.741-12.698-10.456-5.954-3.386-12.386-5.961-18.75-8.458-5.339-2.094-10.8-3.92-16.099-6.108-1.199-.495-2.639.535-2.952,1.676-.379,1.379.473,2.456,1.676,2.952h0Z"></path><path class="i" d="m107.117,127.801c-5.977,2.103-12.003,4.139-17.897,6.467-5.345,2.112-10.793,4.352-15.788,7.216-5.113,2.932-9.705,6.927-13.371,11.537-2.547,3.202-4.381,6.454-5.928,10.211-3.687,8.953-6.458,18.324-9.141,27.616-2.959,10.247-5.928,20.642-7.282,31.243-.796,6.225-.793,12.298,2.395,17.902,2.728,4.796,7.223,8.472,12.245,10.66,1.187.517,2.575.35,3.284-.861.594-1.016.334-2.763-.861-3.284-3.987-1.738-7.639-4.369-10.004-8.078-2.695-4.227-3.01-8.79-2.557-13.668.943-10.141,3.868-20.139,6.629-29.91,2.621-9.273,5.396-18.55,8.823-27.562,1.101-2.895,2.046-5.411,3.839-8.147,3.02-4.606,7.038-8.679,11.589-11.781,4.891-3.335,10.552-5.697,16.02-7.912,6.334-2.566,12.837-4.754,19.282-7.021,1.222-.43,2.037-1.64,1.676-2.952-.326-1.185-1.724-2.108-2.952-1.676h0Z"></path><path class="i" d="m2.318,241.072c12.519,0,25.037-.055,37.556-.056,3.089,0,3.094-4.8,0-4.8-12.519,0-25.037.055-37.556.056-3.089,0-3.094,4.8,0,4.8h0Z"></path><path class="i" d="m233.318,241.07c9.976,0,19.952-.034,29.928-.047,2.802-.004,5.604-.007,8.406-.007,3.089,0,3.094-4.8,0-4.8-10.862,0-21.723.029-32.585.047-1.916.003-3.832.007-5.749.007-3.089,0-3.094,4.8,0,4.8h0Z"></path><path class="i" d="m101.533,133.785c7.337,5.674,16.525,8.869,25.647,10.162,10.292,1.459,20.87.426,30.643-3.173,4.655-1.715,9.044-3.95,12.973-6.989,1.026-.794.835-2.56,0-3.394-1.013-1.013-2.365-.796-3.394,0-6.569,5.08-15.196,7.73-23.308,8.896-9.304,1.337-18.898.216-27.736-2.933-4.019-1.432-8.041-3.341-11.431-5.963-1.024-.792-2.396-.998-3.394,0-.826.826-1.031,2.597,0,3.394h0Z"></path><path class="i" d="m84.559,217.683c-.606-1.054-.197-2.397.89-2.942.265-.133.532-.266.795-.395,1.012-.495,2.229-.143,2.828.811,5.209,8.301,27.043,46.036,31.832,54.895.253.469.073,1.053-.4,1.297h0c-.418.216-.93.095-1.205-.287-3.42-4.733-31.988-48.596-34.739-53.38Z"></path><path class="i" d="m86.631,216.472c.142.298-.179.566.493.104.123-.085-.163-.347.029.038.263.527.632,1.022.938,1.525.861,1.412,1.71,2.83,2.556,4.25,2.369,3.976,4.71,7.968,7.044,11.964,5.237,8.967,10.436,17.956,15.572,26.981,1.09,1.915,2.177,3.832,3.255,5.753.432.77.863,1.54,1.29,2.313.179.324.359.648.537.973.084.153.158.32.254.465.477.72-.513-.04.079-.884l.861-.861c-.422.285-.319.264.308-.063l1.211.328c.092.04.445.651.17.295-.051-.066-.096-.137-.144-.205-.134-.188-.264-.38-.395-.57-.339-.493-.675-.989-1.01-1.486-.943-1.397-1.876-2.801-2.808-4.205-2.674-4.031-5.327-8.074-7.975-12.122-5.796-8.858-11.57-17.73-17.276-26.646-1.683-2.63-3.427-5.241-4.988-7.947-1.544-2.675-5.693-.26-4.145,2.423,3.756,6.508,8.059,12.743,12.142,19.046,5.775,8.914,11.573,17.814,17.436,26.67,1.634,2.469,3.236,4.972,4.959,7.38,1.077,1.505,2.897,2.468,4.691,1.431,1.887-1.091,1.976-3.205,1.06-4.951-.781-1.488-1.627-2.945-2.451-4.41-5.647-10.041-11.423-20.011-17.224-29.963-2.751-4.721-5.511-9.436-8.308-14.13-.961-1.613-1.925-3.224-2.907-4.824-.574-.936-1.111-1.909-2.029-2.556-1.933-1.362-4.325-.905-6.141.437-1.919,1.419-2.212,3.812-1.229,5.87.559,1.169,2.231,1.476,3.284.861,1.196-.7,1.422-2.11.861-3.284Z"></path><path class="i" d="m87.371,234.486c3.341-.5,6.858-.725,10.159.135,3.195.833,5.58,2.753,8.09,4.789,2.326,1.887,4.849,3.884,6.422,6.476,1.053,1.735,1.612,4.459-.563,5.791-2.63,1.61-.222,5.764,2.423,4.145,2.522-1.544,4.048-4.716,3.873-7.661-.183-3.075-2.081-5.769-4.112-7.951-1.994-2.142-4.332-3.911-6.587-5.763-2.733-2.244-5.72-3.958-9.219-4.673-3.915-.8-7.841-.502-11.761.084-1.283.192-1.99,1.81-1.676,2.952.377,1.374,1.665,1.869,2.952,1.676h0Z"></path><path class="i" d="m80.694,268.004c2.045,2.3,4.335,4.402,6.911,6.098,1.051.692,2.7.243,3.284-.861.635-1.202.261-2.545-.861-3.284-.539-.355-1.064-.731-1.576-1.124l.486.375c-1.765-1.367-3.367-2.931-4.849-4.598-.837-.941-2.552-.917-3.394,0-.922,1.004-.892,2.39,0,3.394h0Z"></path><path class="i" d="m85.578,260.676c4.248,4.605,8.818,8.795,13.812,12.58,1.005.761,2.728.192,3.284-.861.668-1.265.211-2.471-.861-3.284-.158-.119-.315-.239-.472-.359-.101-.077-.424-.327-.164-.125-.304-.236-.606-.473-.907-.712-.559-.445-1.114-.896-1.663-1.353-1.104-.92-2.185-1.866-3.242-2.839-2.227-2.049-4.34-4.217-6.392-6.441-.853-.925-2.541-.929-3.394,0-.909.99-.91,2.407,0,3.394h0Z"></path><path class="i" d="m92.068,253.798c4.449,5.319,9.176,10.28,14.353,14.895.937.835,2.483.993,3.394,0,.838-.913,1.001-2.502,0-3.394-5.177-4.615-9.903-9.576-14.353-14.895-.809-.967-2.57-.897-3.394,0-.944,1.028-.863,2.363,0,3.394h0Z"></path><path class="i" d="m86.095,229.858c-5.205.81-10.806,2.188-14.909,5.674-1.9,1.614-3.441,3.823-4.835,5.868-1.555,2.282-2.933,4.755-3.769,7.397-.826,2.609-.729,4.882.911,7.129,1.563,2.142,3.394,3.973,4.565,6.387,1.385,2.852,2.29,5.899,4.096,8.542,1.631,2.386,3.694,4.26,6.064,5.894,1.359.937,2.869,2.089,4.495,2.49,1.547.382,3.138.18,4.579-.469,2.778-1.25,4.735-4.319,3.839-7.38l-4.011,2.335c3.056,2.418,6.653,4.351,10.651,3.033,2.34-.771,6.221-3.248,5.145-6.213l-3.526,2.71c3.203,2.057,7.645,2.872,10.738.129,1.266-1.123,2.118-2.68,1.879-4.399-.262-1.882-1.646-3.294-3.077-4.421l-2.335,4.011c2.785.754,6.158.703,8.234-1.609,1.565-1.744,2.018-4.322.803-6.387-1.094-1.859-2.724-3.515-4.123-5.146-1.306-1.523-2.652-3.012-3.868-4.609-2.018-2.651-3.638-5.56-5.314-8.432-1.556-2.667-5.706-.254-4.145,2.423,1.648,2.825,3.244,5.683,5.214,8.301,1.49,1.98,3.107,3.832,4.718,5.712.839.978,1.674,1.959,2.481,2.964.055.069.634.821.322.403.126.168.255.336.372.511.088.131.172.264.257.397.09.172.07.115-.059-.169.038.11.068.222.09.335-.034-.318-.046-.385-.037-.199.005.09.004.18-.002.27.29-.543-.044.102-.109.271.259-.676-.275.326-.057.042.235-.307-.564.479-.093.12-.093.071-.787.396-.494.291.01-.004-.66.182-.432.143-.838.143-1.679-.043-2.483-.26-2.148-.581-4.306,2.458-2.335,4.011.486.383.996.769,1.399,1.242.128.151.449.582.391.574-.165-.022.014-.389-.008-.463.058.199-.173.233.001.04-.21.232-.358.476-.632.654-1.529.99-3.551-.046-4.873-.895-1.689-1.085-4.242.736-3.526,2.71l-.011-.319c.253-.704.294-.909.121-.613.005.004.033-.012-.059.04-.296.167-.312.297-.67.529-.363.236-.742.433-1.122.639-.233.127-.206.083.021.006-.161.055-.316.102-.483.143-2.108.523-3.979-.655-5.571-1.915-1.743-1.379-4.747-.178-4.011,2.335.097.333.131.243.01.57.115-.309-.333.559-.207.391-.408.54-1.114.943-1.708,1.01-.892.101-1.58-.491-2.326-.963-.994-.629-1.992-1.27-2.909-2.009-1.894-1.526-3.303-3.367-4.412-5.525-1.143-2.225-1.889-4.631-3.05-6.846-1.129-2.154-2.807-3.858-4.257-5.781-.233-.309-.453-.636-.644-.974-.142-.251-.183-.187-.234-.593.048.38.078-.45.105-.585.108-.548.268-1.089.448-1.618.719-2.117,1.925-4.084,3.178-5.923,1.067-1.567,2.233-3.152,3.607-4.467,3.36-3.218,8.849-4.182,13.268-4.869,1.282-.199,1.992-1.805,1.676-2.952-.376-1.368-1.667-1.876-2.952-1.676h0Z"></path><path class="i" d="m180.474,252.238c-2.466,1.934-4.864,3.948-7.234,5.997-2.048,1.771-4.166,3.487-6.086,5.398-1.975,1.965-3.769,4.352-3.65,7.283s1.653,5.402,4.457,6.421c2.925,1.064,6.435.211,9.052-1.278,2.684-1.528.269-5.676-2.423-4.145-.891.507-2.096.937-3.016,1.036-.606.065-1.225.053-1.572-.02-.519-.108-.909-.304-1.049-.397-.101-.089-.196-.186-.283-.289.157.199.155.179-.005-.06-.19-.455,0,.131-.158-.323-.217-.628-.26-.833-.197-1.508.075-.804.846-1.84,1.394-2.447,1.955-2.162,4.283-3.985,6.482-5.89,2.517-2.181,5.061-4.33,7.683-6.385,1.021-.801.839-2.555,0-3.394-1.008-1.008-2.371-.803-3.394,0h0Z"></path><path class="i" d="m165.958,264.683c-.575.12.479.039-.131.026-.111-.002-.709-.063-.172.04-.057-.011-.603-.113-.323-.068.072.012-.076-.046-.107-.074-.035-.032-.342-.403-.246-.269-.048-.067-.379-.843-.244-.421-.031-.097-.143-.73-.096-.281-.022-.205-.016-.412-.009-.617.014-.167.008-.168-.019-.002l.049-.261c.055-.268.127-.537.22-.794.142-.392.392-.853.692-1.28.513-.73,1.213-1.328,1.821-1.98,3.329-3.572,7.092-6.551,10.965-9.507,1.029-.785,1.572-2.067.861-3.284-.592-1.013-2.247-1.652-3.284-.861-4.8,3.663-9.617,7.344-13.556,11.96-1.9,2.227-3.261,5.482-2.195,8.396,1.121,3.064,3.901,4.563,7.049,3.906,1.269-.265,2.004-1.759,1.676-2.952-.362-1.317-1.679-1.942-2.952-1.676h0Z"></path><path class="i" d="m188.516,257.659c-3.193,2.542-6.429,5.032-9.517,7.702-2.818,2.436-6.257,5.534-5.274,9.67,1.076,4.528,6.214,5.299,9.956,3.806,3.446-1.375,6.242-4.129,9.24-6.244,2.838-2.002,5.754-3.912,8.472-6.079,1.014-.809.844-2.55,0-3.394-1.002-1.002-2.377-.811-3.394,0-.073.058-.335.26.023-.013-.09.068-.179.137-.269.204-.234.175-.469.35-.704.522-.548.401-1.1.796-1.653,1.188-1.161.823-2.329,1.636-3.497,2.449-2.386,1.662-4.644,3.496-7.033,5.152-1.26.873-2.426,1.68-3.75,2.009-.929.231-2.192.349-2.647-.522-.127-.243-.155-.608-.087-.912.108-.485.45-.907.749-1.266,1.062-1.277,2.332-2.382,3.591-3.458,2.995-2.559,6.109-4.968,9.19-7.421,1.015-.808.844-2.551,0-3.394-1.003-1.003-2.377-.81-3.394,0h0Z"></path><path class="i" d="m168.704,249.887c-.957-.025-1.198-1.141-1.067-1.867.184-1.017,1.292-1.925,2.265-2.658,2.721-2.05,5.961-3.801,9.17-4.94,3.08-1.093,6.303-1.569,9.558-1.71s6.804-.004,9.869,1.225c2.459.986,4.75,2.502,6.37,4.06,1.831,1.761,3.38,3.564,4.276,5.961,1.11,2.971,1.371,5.92.653,9.016-.584,2.52-1.905,4.509-3.694,6.346-1.216,1.249-2.498,2.437-3.799,3.596-1.168,1.04-2.341,2.162-3.713,2.931-1.116.625-2.554,1.036-3.705.495.082.039.213.043.259.143.04.087-.188-.568-.208-.749.035.311.026-.578.021-.504-.029.373.265-.755.001-.192.55-1.173.328-2.588-.861-3.284-1.041-.609-2.731-.318-3.284.861-1.546,3.294-.339,7.705,3.499,8.552,4.287.946,7.767-1.687,10.804-4.345,2.764-2.419,5.738-4.989,7.597-8.204,1.882-3.255,2.66-7.476,2.211-11.194-.478-3.963-2.015-7.627-4.61-10.648-2.267-2.64-4.943-4.726-8.028-6.342-3.934-2.061-8.427-2.651-12.827-2.553-4.257.094-8.606.683-12.585,2.254-2.421.956-4.748,2.145-6.978,3.487-2.014,1.212-4.094,2.587-5.557,4.456-1.353,1.727-1.926,4.089-1.32,6.235.69,2.441,3.178,4.303,5.683,4.37,3.09.082,3.088-4.718,0-4.8h0Z"></path><path class="i" d="m60.89,222.244c.53-.274,1.066-.538,1.608-.788.24-.11.483-.212.722-.323.156-.067.138-.061-.052.019.14-.058.28-.116.42-.173,1.051-.426,2.119-.809,3.2-1.148,2.051-.644,4.15-1.134,6.28-1.424,1.249-.17,2.038-1.833,1.676-2.952-.444-1.373-1.614-1.858-2.952-1.676-4.635.631-9.178,2.174-13.326,4.32-1.117.578-1.538,2.233-.861,3.284.734,1.139,2.089,1.479,3.284.861h0Z"></path><path class="i" d="m194.424,177.317c-.864,16.293-2.155,32.56-3.129,48.846-.184,3.085,4.616,3.075,4.8,0,.974-16.286,2.265-32.553,3.129-48.846.164-3.087-4.637-3.078-4.8,0h0Z"></path><path class="i" d="m74.103,174.331c.676,10.069,1.672,20.115,2.372,30.182.09,1.293,1.039,2.4,2.4,2.4,1.229,0,2.49-1.1,2.4-2.4-.7-10.067-1.697-20.113-2.372-30.182-.087-1.293-1.041-2.4-2.4-2.4-1.232,0-2.487,1.1-2.4,2.4h0Z"></path><path class="i" d="m178.127,69.677c1.036-.925,2.454-1.151,3.788-.86.274.06.548.136.798.248.106.047.721.418.55.29.192.142.355.323.524.49.472.467-.19-.327.147.162,1.465,2.129,1.476,5.151,1.254,7.639-.228,2.556-1.173,5.145-2.413,7.382-1.459,2.632-3.684,5.287-6.972,4.852-1.287-.17-2.4,1.225-2.4,2.4,0,1.438,1.109,2.229,2.4,2.4,7.21.954,11.602-6.908,13.405-12.713,1.6-5.152,1.618-13.222-3.347-16.616-3.403-2.326-8.132-1.74-11.126.931-2.31,2.061,1.095,5.446,3.394,3.394h0Z"></path><path class="i" d="m154.867,10.685c7.714.903,14.797,4.964,19.955,10.688,5.376,5.965,8.537,14.077,9.225,22.04.462,5.344-.227,10.626-1.581,15.797-.783,2.991,3.845,4.267,4.629,1.276,2.627-10.03,2.5-20.232-1.259-29.958-3.196-8.272-8.916-15.348-16.591-19.877-4.421-2.609-9.292-4.17-14.378-4.765-1.289-.151-2.4,1.211-2.4,2.4,0,1.423,1.107,2.249,2.4,2.4h0Z"></path><path class="i" d="m155.724,37.994c3.746,4.269,6.682,9.277,8.576,14.633,2.136,6.041,2.667,12.234,2.956,18.592.14,3.076,4.941,3.093,4.8,0-.314-6.902-.897-13.719-3.268-20.261-2.183-6.023-5.444-11.543-9.67-16.357-2.042-2.326-5.425,1.08-3.394,3.394h0Z"></path><path class="i" d="m154.402,39.43c-4.561,9.761-15.267,19.197-26.761,17.581-1.282-.18-2.578.313-2.952,1.676-.309,1.124.384,2.771,1.676,2.952,13.657,1.92,26.58-7.798,32.181-19.787.548-1.174.329-2.587-.861-3.284-1.04-.608-2.732-.319-3.284.861h0Z"></path><path class="i" d="m137.419,39.108c-2.477,6.238-7.957,10.996-13.391,14.654-2.863,1.928-5.867,3.642-8.939,5.213-2.693,1.378-5.682,2.131-8.409,3.484-3.16,1.568-6.051,3.99-6.908,7.555-.722,3.002,3.905,4.283,4.629,1.276.597-2.483,2.947-3.877,5.286-4.966,2.782-1.295,5.722-2.108,8.454-3.528,6.286-3.267,12.478-7.192,17.375-12.368,2.789-2.948,5.033-6.269,6.532-10.044.479-1.205-.524-2.636-1.676-2.952-1.365-.375-2.472.467-2.952,1.676h0Z"></path><path class="i" d="m90.777,65.464c-3.944-8.665-4.214-18.747-1.028-27.681.435-1.221-.492-2.627-1.676-2.952-1.329-.365-2.515.451-2.952,1.676-3.638,10.201-2.957,21.561,1.512,31.379.537,1.18,2.246,1.468,3.284.861,1.212-.709,1.4-2.099.861-3.284h0Z"></path><path class="i" d="m91.33,29.567c4.415-6.801,9.803-13.134,16.594-17.663,7.05-4.702,15.324-7.323,23.826-7.106,4.782.122,9.545,1.184,13.828,3.341,2.752,1.386,5.185-2.754,2.423-4.145-8.595-4.328-18.591-4.984-27.878-2.713-8.974,2.194-17.02,7.258-23.453,13.818-3.583,3.654-6.7,7.758-9.484,12.045-1.687,2.599,2.467,5.007,4.145,2.423h0Z"></path><path class="i" d="m128.246,106.207c2.527,1.346,5.253,1.918,8.116,1.899,2.956-.019,5.901-.628,8.257-2.479.992-.78.877-2.589,0-3.394-1.052-.966-2.336-.832-3.394,0,.741-.583.238-.185.047-.061-.159.103-.324.198-.491.287-.207.109-.794.279-.1.073-.229.068-.45.175-.678.248-.62.201-1.255.331-1.897.437.355-.058.141-.019-.091.005-.186.019-.372.034-.559.046-.449.029-.899.041-1.348.038-.403-.002-.805-.016-1.207-.044-.185-.013-.369-.028-.553-.046-.09-.009-.761-.132-.178-.018-.597-.117-1.188-.221-1.772-.397-.248-.075-.49-.164-.735-.249-.582-.202.433.215-.093-.036-.304-.145-.603-.295-.901-.453-1.108-.59-2.662-.316-3.284.861-.588,1.113-.322,2.653.861,3.284h0Z"></path><path class="i" d="m134.99,87.132c.347,1.333.679,2.687.878,4.051l-.086-.638c.024.187.034.371.015.559l.086-.638c-.013.087-.032.168-.061.251l.242-.573c-.026.059-.053.108-.088.162l.375-.486c-.041.051-.08.089-.131.13l.486-.375c-.101.066-.209.119-.318.17l.573-.242c-.175.074-.349.128-.536.158l.638-.086c-.169.02-.334.019-.503,0l.638.086c-.19-.027-.376-.073-.566-.099-.319-.1-.638-.114-.957-.043-.319.014-.617.109-.892.285-.498.291-.973.862-1.103,1.434-.14.614-.11,1.304.242,1.849.312.485.834,1.021,1.434,1.103.462.063.91.18,1.381.201.736.032,1.418-.197,2.073-.5.818-.379,1.462-1.136,1.678-2.018.184-.753.107-1.383-.019-2.137-.219-1.305-.517-2.598-.85-3.878-.151-.579-.589-1.134-1.103-1.434s-1.273-.429-1.849-.242c-1.252.405-2.015,1.65-1.676,2.952h0Z"></path><path class="i" d="m114.087,75.575c-.671,2.198-.233,7.255,3.895,7.685,5.456-.033,5.747-6.147,3.91-9.021-1.504-2.353-5.926-3.332-7.805,1.336Z"></path><path class="i" d="m157.782,75.575c.671,2.198.234,7.255-3.895,7.685-5.456-.033-5.747-6.147-3.91-9.021,1.504-2.353,5.926-3.332,7.805,1.336Z"></path><path class="i" d="m93.338,89.368c1.812,8.2,5.599,15.873,11.029,22.279,5.228,6.169,11.994,11.101,20.135,12.354,1.28.197,2.581-.324,2.952-1.676.312-1.137-.388-2.754-1.676-2.952-7.426-1.144-13.249-5.493-18.017-11.12-4.896-5.777-8.165-12.788-9.794-20.161-.666-3.015-5.295-1.739-4.629,1.276h0Z"></path><path class="i" d="m173.683,88.092c-1.499,6.784-4.38,13.28-8.66,18.776-2.109,2.708-4.547,5.299-7.363,7.281-2.691,1.894-5.653,3.234-8.772,4.252-2.924.955-1.672,5.591,1.276,4.629,3.491-1.14,6.904-2.615,9.918-4.736,3.182-2.239,5.925-4.985,8.335-8.031,4.833-6.108,8.214-13.289,9.895-20.894.665-3.01-3.961-4.296-4.629-1.276h0Z"></path><path class="i" d="m97.167,65.751c-2.751-2.509-6.739-3.104-10.124-1.528-2.458,1.144-3.926,3.457-4.619,6.006-1.627,5.982-.126,12.948,3.243,18.084,2.273,3.465,5.904,6.624,10.337,6.05,1.285-.166,2.4-.984,2.4-2.4,0-1.168-1.105-2.568-2.4-2.4-3.3.427-5.512-2.3-6.949-4.94-1.266-2.325-2.194-5.004-2.393-7.651-.186-2.469-.164-5.516,1.359-7.606.095-.132.076-.106-.057.08.099-.115.203-.225.311-.332.048-.042.534-.428.3-.264.492-.345,1.005-.531,1.595-.638,1.291-.234,2.622.038,3.604.933,2.279,2.078,5.683-1.307,3.394-3.394h0Z"></path><path class="i" d="m245.568,287.654c1.071-.654,1.86-1.649,2.093-2.897.258-1.384-.211-2.514-.911-3.675-1.06-1.759-2.182-3.481-3.316-5.193-1.21-1.825-2.288-3.842-4.677-4.168-2.023-.276-4.117,1.014-5.919,1.789-1.892.814-3.778,1.651-5.617,2.58-2.556,1.29-3.277,3.902-1.951,6.396,1.138,2.14,2.306,4.264,3.432,6.411.551,1.05,1.022,2.259,1.858,3.118.933.958,2.329,1.36,3.63,1.161,1.101-.168,2.146-.804,3.141-1.294.961-.473,1.917-.956,2.871-1.442,1.796-.915,3.584-1.846,5.366-2.786,1.146-.604,1.495-2.2.861-3.284-.679-1.161-2.133-1.468-3.284-.861-2.502,1.319-5.013,2.624-7.545,3.885-.592.295-1.185.587-1.781.874-.271.13-.74.301-.184.178.112-.025.399.209-.05-.013.038.019.341.147.333.15-.008.002-.986-1.945-1.151-2.26-.456-.869-.915-1.736-1.377-2.601-.435-.815-.872-1.628-1.313-2.44-.22-.406-.439-.812-.662-1.217-.47-.851-.09-.207-.098-.169-.041.205-.036.324-.098.532.071-.238.226-.13.036-.051-.127.053-.274.138.143-.016.344-.127.677-.341,1.007-.502.756-.369,1.519-.723,2.285-1.07,1.316-.596,2.904-1.28,3.969-1.726.287-.12.573-.239.86-.358.122-.051.271-.097.389-.161l.231-.081h-.169c.061-.052.392-.019.058-.025.479.009.111.144.012-.016-.239-.385.158.255.252.396.987,1.472,1.965,2.949,2.918,4.443.474.743.941,1.49,1.396,2.245.094.156.183.323.284.475.314.473.011.094.065-.087.037-.124.093-.221.133-.34-.109.324-.15.083.057-.043-2.633,1.607-.224,5.76,2.423,4.145Z"></path><path class="i" d="m230.808,292.316c1.287,2.11,2.979,3.844,5.296,4.78,2.379.962,5.223.815,7.595-.101,2.513-.97,4.392-3.038,5.224-5.595.818-2.513.386-5.281-.772-7.606-.561-1.126-2.244-1.531-3.284-.861-1.152.743-1.461,2.079-.861,3.284.106.213.201.473.062.101.069.184.137.367.195.554.06.194.114.391.159.589.018.078.127.797.101.512-.027-.299.014.363.016.437.006.222.002.443-.013.665-.006.112-.016.224-.029.336.03-.225.03-.25-.001-.075-.07.22-.101.454-.169.676-.033.114-.07.226-.112.337.076-.161.08-.17.014-.029-.107.23-.23.452-.364.667-.056.09-.432.585-.125.21-.133.163-.275.32-.424.469-.146.147-.3.284-.457.418.31-.264-.012,0-.163.095-.164.103-.336.189-.506.281.423-.229-.015.003-.221.073-.457.154-.923.27-1.396.36-.715.136.411,0-.314.034-.24.011-.478.025-.718.022s-.478-.019-.716-.04c.451.04-.272-.06-.307-.068-.198-.045-.393-.099-.586-.162-.202-.066-.531-.233-.158-.047-.348-.174-.668-.369-.997-.574-.452-.282.239.245-.117-.091-.139-.131-.285-.254-.421-.389-.16-.158-.313-.323-.46-.492-.046-.053-.422-.538-.241-.287.182.253-.175-.26-.213-.316-.129-.193-.252-.389-.373-.587-.653-1.072-2.18-1.572-3.284-.861-1.076.694-1.56,2.137-.861,3.284h0Z"></path></g></g></svg>